<mxfile host="app.diagrams.net" agent="Mozilla/5.0 (Windows NT 10.0; Win64; x64) AppleWebKit/537.36 (KHTML, like Gecko) Chrome/136.0.0.0 Safari/537.36 Edg/136.0.0.0" version="27.0.5">
  <diagram name="Страница — 1" id="mOt0P1j8qdvr94AqTxT4">
    <mxGraphModel dx="3863" dy="1237" grid="1" gridSize="10" guides="1" tooltips="1" connect="1" arrows="1" fold="1" page="1" pageScale="1" pageWidth="827" pageHeight="1169" math="0" shadow="0">
      <root>
        <mxCell id="0" />
        <mxCell id="1" parent="0" />
        <mxCell id="5Bsa57qsfdlH7Fz6no1h-64" style="edgeStyle=orthogonalEdgeStyle;rounded=0;orthogonalLoop=1;jettySize=auto;html=1;entryX=0;entryY=0.5;entryDx=0;entryDy=0;fontSize=20;fontFamily=Times New Roman;" parent="1" source="5Bsa57qsfdlH7Fz6no1h-1" target="5Bsa57qsfdlH7Fz6no1h-14" edge="1">
          <mxGeometry relative="1" as="geometry">
            <Array as="points">
              <mxPoint x="-70" y="215" />
              <mxPoint x="-70" y="625" />
            </Array>
          </mxGeometry>
        </mxCell>
        <mxCell id="5Bsa57qsfdlH7Fz6no1h-68" style="edgeStyle=orthogonalEdgeStyle;rounded=0;orthogonalLoop=1;jettySize=auto;html=1;fontSize=20;fontFamily=Times New Roman;" parent="1" source="5Bsa57qsfdlH7Fz6no1h-1" target="5Bsa57qsfdlH7Fz6no1h-13" edge="1">
          <mxGeometry relative="1" as="geometry">
            <Array as="points">
              <mxPoint x="-870" y="215" />
              <mxPoint x="-870" y="615" />
            </Array>
          </mxGeometry>
        </mxCell>
        <mxCell id="5Bsa57qsfdlH7Fz6no1h-71" style="edgeStyle=orthogonalEdgeStyle;rounded=0;orthogonalLoop=1;jettySize=auto;html=1;entryX=0;entryY=0.5;entryDx=0;entryDy=0;fontSize=20;fontFamily=Times New Roman;" parent="1" source="5Bsa57qsfdlH7Fz6no1h-1" target="5Bsa57qsfdlH7Fz6no1h-16" edge="1">
          <mxGeometry relative="1" as="geometry">
            <Array as="points">
              <mxPoint x="830" y="215" />
              <mxPoint x="830" y="625" />
            </Array>
          </mxGeometry>
        </mxCell>
        <mxCell id="5Bsa57qsfdlH7Fz6no1h-1" value="&lt;font&gt;Бизнес-направления&lt;/font&gt;" style="rounded=1;whiteSpace=wrap;html=1;fontSize=20;fontFamily=Times New Roman;" parent="1" vertex="1">
          <mxGeometry x="130" y="140" width="284" height="150" as="geometry" />
        </mxCell>
        <mxCell id="5Bsa57qsfdlH7Fz6no1h-70" style="edgeStyle=orthogonalEdgeStyle;rounded=0;orthogonalLoop=1;jettySize=auto;html=1;fontSize=20;fontFamily=Times New Roman;" parent="1" source="5Bsa57qsfdlH7Fz6no1h-13" target="5Bsa57qsfdlH7Fz6no1h-46" edge="1">
          <mxGeometry relative="1" as="geometry">
            <Array as="points">
              <mxPoint x="-648" y="765" />
            </Array>
          </mxGeometry>
        </mxCell>
        <mxCell id="5Bsa57qsfdlH7Fz6no1h-13" value="&lt;div class=&quot;code-block&quot; data-entity-type=&quot;MessageEntityPre&quot; data-language=&quot;&quot; style=&quot;box-sizing: border-box; font-variant-numeric: normal; font-variant-east-asian: normal; font-variant-alternates: normal; font-variant-position: normal; font-variant-emoji: normal; font-kerning: auto; font-optical-sizing: auto; font-feature-settings: normal; font-variation-settings: normal; font-stretch: normal; line-height: 1.25; font-size-adjust: 0.5; margin-top: 0px; margin-bottom: 0px; overflow: hidden; --color-scrollbar: var(--color-scrollbar-code); --color-type: light-dark(#0053d4, #6db4ff); --color-keyword: light-dark(#388e22, #56a043); --color-class: light-dark(#3e6c20, #83ab69); --color-string: light-dark(#9a1111, #ffadad); --color-template: light-dark(#9a5334, #cd9076); --color-selector: light-dark(#9a5334, #cd9076); --color-function: light-dark(#a753b7, #c37bd1); --color-comment: light-dark(#616161, #9a9a9a); --color-section: light-dark(#9a1111, #ffadad); --color-variable: light-dark(#bd63c5, #b86bbf); --color-attribute: light-dark(#276b8f, #6ba6c5); --color-link: light-dark(#276b8f, #6ba6c5); --color-tag: light-dark(#000000, #ededed);&quot;&gt;&lt;div class=&quot;code-block&quot; data-entity-type=&quot;MessageEntityPre&quot; data-language=&quot;&quot; style=&quot;box-sizing: border-box; font-variant-numeric: normal; font-variant-east-asian: normal; font-variant-alternates: normal; font-variant-position: normal; font-variant-emoji: normal; font-kerning: auto; font-optical-sizing: auto; font-feature-settings: normal; font-variation-settings: normal; font-stretch: normal; line-height: 1.25; font-size-adjust: 0.5; margin-top: 0px; margin-bottom: 0px; overflow: hidden; --color-scrollbar: var(--color-scrollbar-code); --color-type: light-dark(#0053d4, #6db4ff); --color-keyword: light-dark(#388e22, #56a043); --color-class: light-dark(#3e6c20, #83ab69); --color-string: light-dark(#9a1111, #ffadad); --color-template: light-dark(#9a5334, #cd9076); --color-selector: light-dark(#9a5334, #cd9076); --color-function: light-dark(#a753b7, #c37bd1); --color-comment: light-dark(#616161, #9a9a9a); --color-section: light-dark(#9a1111, #ffadad); --color-variable: light-dark(#bd63c5, #b86bbf); --color-attribute: light-dark(#276b8f, #6ba6c5); --color-link: light-dark(#276b8f, #6ba6c5); --color-tag: light-dark(#000000, #ededed);&quot;&gt;&lt;span style=&quot;text-wrap-mode: wrap;&quot;&gt;&lt;font&gt;Отдел мониторинга академических задолженностей&lt;/font&gt;&lt;/span&gt;&lt;/div&gt;&lt;/div&gt;" style="rounded=1;whiteSpace=wrap;html=1;align=center;fillColor=#FFFFFF;strokeColor=#000000;fontSize=20;fontFamily=Times New Roman;" parent="1" vertex="1">
          <mxGeometry x="-790" y="540" width="284" height="150" as="geometry" />
        </mxCell>
        <mxCell id="5Bsa57qsfdlH7Fz6no1h-14" value="&lt;div class=&quot;code-block&quot; data-entity-type=&quot;MessageEntityPre&quot; data-language=&quot;&quot; style=&quot;box-sizing: border-box; font-variant-numeric: normal; font-variant-east-asian: normal; font-variant-alternates: normal; font-variant-position: normal; font-variant-emoji: normal; font-kerning: auto; font-optical-sizing: auto; font-feature-settings: normal; font-variation-settings: normal; font-stretch: normal; line-height: 1.25; font-size-adjust: 0.5; margin-top: 0px; margin-bottom: 0px; overflow: hidden; --color-scrollbar: var(--color-scrollbar-code); --color-type: light-dark(#0053d4, #6db4ff); --color-keyword: light-dark(#388e22, #56a043); --color-class: light-dark(#3e6c20, #83ab69); --color-string: light-dark(#9a1111, #ffadad); --color-template: light-dark(#9a5334, #cd9076); --color-selector: light-dark(#9a5334, #cd9076); --color-function: light-dark(#a753b7, #c37bd1); --color-comment: light-dark(#616161, #9a9a9a); --color-section: light-dark(#9a1111, #ffadad); --color-variable: light-dark(#bd63c5, #b86bbf); --color-attribute: light-dark(#276b8f, #6ba6c5); --color-link: light-dark(#276b8f, #6ba6c5); --color-tag: light-dark(#000000, #ededed);&quot;&gt;&lt;div class=&quot;code-block&quot; data-entity-type=&quot;MessageEntityPre&quot; data-language=&quot;&quot; style=&quot;box-sizing: border-box; font-variant-numeric: normal; font-variant-east-asian: normal; font-variant-alternates: normal; font-variant-position: normal; font-variant-emoji: normal; font-kerning: auto; font-optical-sizing: auto; font-feature-settings: normal; font-variation-settings: normal; font-stretch: normal; line-height: 1.25; font-size-adjust: 0.5; margin-top: 0px; margin-bottom: 0px; overflow: hidden; --color-scrollbar: var(--color-scrollbar-code); --color-type: light-dark(#0053d4, #6db4ff); --color-keyword: light-dark(#388e22, #56a043); --color-class: light-dark(#3e6c20, #83ab69); --color-string: light-dark(#9a1111, #ffadad); --color-template: light-dark(#9a5334, #cd9076); --color-selector: light-dark(#9a5334, #cd9076); --color-function: light-dark(#a753b7, #c37bd1); --color-comment: light-dark(#616161, #9a9a9a); --color-section: light-dark(#9a1111, #ffadad); --color-variable: light-dark(#bd63c5, #b86bbf); --color-attribute: light-dark(#276b8f, #6ba6c5); --color-link: light-dark(#276b8f, #6ba6c5); --color-tag: light-dark(#000000, #ededed);&quot;&gt;&lt;font&gt;&lt;span style=&quot;text-wrap-mode: wrap;&quot;&gt;Отдел организации учебного процесса&lt;/span&gt;&lt;/font&gt;&lt;span style=&quot;text-wrap-mode: wrap;&quot;&gt;&lt;/span&gt;&lt;/div&gt;&lt;/div&gt;" style="rounded=1;whiteSpace=wrap;html=1;align=center;fillColor=#FFFFFF;strokeColor=#000000;fontSize=20;fontFamily=Times New Roman;" parent="1" vertex="1">
          <mxGeometry x="60" y="550" width="284" height="150" as="geometry" />
        </mxCell>
        <mxCell id="5Bsa57qsfdlH7Fz6no1h-76" style="edgeStyle=orthogonalEdgeStyle;rounded=0;orthogonalLoop=1;jettySize=auto;html=1;fontSize=20;fontFamily=Times New Roman;" parent="1" source="5Bsa57qsfdlH7Fz6no1h-16" target="5Bsa57qsfdlH7Fz6no1h-35" edge="1">
          <mxGeometry relative="1" as="geometry">
            <Array as="points">
              <mxPoint x="1099" y="465" />
            </Array>
          </mxGeometry>
        </mxCell>
        <mxCell id="5Bsa57qsfdlH7Fz6no1h-77" style="edgeStyle=orthogonalEdgeStyle;rounded=0;orthogonalLoop=1;jettySize=auto;html=1;entryX=0;entryY=0.5;entryDx=0;entryDy=0;fontSize=20;fontFamily=Times New Roman;" parent="1" source="5Bsa57qsfdlH7Fz6no1h-16" target="5Bsa57qsfdlH7Fz6no1h-37" edge="1">
          <mxGeometry relative="1" as="geometry">
            <Array as="points">
              <mxPoint x="1099" y="765" />
            </Array>
          </mxGeometry>
        </mxCell>
        <mxCell id="5Bsa57qsfdlH7Fz6no1h-16" value="&lt;div class=&quot;code-block&quot; data-entity-type=&quot;MessageEntityPre&quot; data-language=&quot;&quot; style=&quot;box-sizing: border-box; font-variant-numeric: normal; font-variant-east-asian: normal; font-variant-alternates: normal; font-variant-position: normal; font-variant-emoji: normal; font-kerning: auto; font-optical-sizing: auto; font-feature-settings: normal; font-variation-settings: normal; font-stretch: normal; line-height: 1.25; font-size-adjust: 0.5; margin-top: 0px; margin-bottom: 0px; overflow: hidden; --color-scrollbar: var(--color-scrollbar-code); --color-type: light-dark(#0053d4, #6db4ff); --color-keyword: light-dark(#388e22, #56a043); --color-class: light-dark(#3e6c20, #83ab69); --color-string: light-dark(#9a1111, #ffadad); --color-template: light-dark(#9a5334, #cd9076); --color-selector: light-dark(#9a5334, #cd9076); --color-function: light-dark(#a753b7, #c37bd1); --color-comment: light-dark(#616161, #9a9a9a); --color-section: light-dark(#9a1111, #ffadad); --color-variable: light-dark(#bd63c5, #b86bbf); --color-attribute: light-dark(#276b8f, #6ba6c5); --color-link: light-dark(#276b8f, #6ba6c5); --color-tag: light-dark(#000000, #ededed);&quot;&gt;&lt;font&gt;&lt;span style=&quot;text-wrap-mode: wrap;&quot;&gt;Отдел информационного и документационного сопровождения обучающихся&lt;/span&gt;&lt;/font&gt;&lt;/div&gt;" style="rounded=1;whiteSpace=wrap;html=1;align=center;fillColor=#FFFFFF;strokeColor=#000000;fontSize=20;fontFamily=Times New Roman;" parent="1" vertex="1">
          <mxGeometry x="957" y="550" width="284" height="150" as="geometry" />
        </mxCell>
        <mxCell id="5Bsa57qsfdlH7Fz6no1h-21" value="&lt;div class=&quot;code-block&quot; data-entity-type=&quot;MessageEntityPre&quot; data-language=&quot;&quot; style=&quot;box-sizing: border-box; font-variant-numeric: normal; font-variant-east-asian: normal; font-variant-alternates: normal; font-variant-position: normal; font-variant-emoji: normal; font-kerning: auto; font-optical-sizing: auto; font-feature-settings: normal; font-variation-settings: normal; font-stretch: normal; line-height: 1.25; font-size-adjust: 0.5; margin-top: 0px; margin-bottom: 0px; overflow: hidden; --color-scrollbar: var(--color-scrollbar-code); text-wrap-mode: wrap; --color-type: light-dark(#0053d4, #6db4ff); --color-keyword: light-dark(#388e22, #56a043); --color-class: light-dark(#3e6c20, #83ab69); --color-string: light-dark(#9a1111, #ffadad); --color-template: light-dark(#9a5334, #cd9076); --color-selector: light-dark(#9a5334, #cd9076); --color-function: light-dark(#a753b7, #c37bd1); --color-comment: light-dark(#616161, #9a9a9a); --color-section: light-dark(#9a1111, #ffadad); --color-variable: light-dark(#bd63c5, #b86bbf); --color-attribute: light-dark(#276b8f, #6ba6c5); --color-link: light-dark(#276b8f, #6ba6c5); --color-tag: light-dark(#000000, #ededed);&quot;&gt;&lt;div class=&quot;code-block&quot; data-entity-type=&quot;MessageEntityPre&quot; data-language=&quot;&quot; style=&quot;box-sizing: border-box; font-variant-numeric: normal; font-variant-east-asian: normal; font-variant-alternates: normal; font-variant-position: normal; font-variant-emoji: normal; font-kerning: auto; font-optical-sizing: auto; font-feature-settings: normal; font-variation-settings: normal; font-stretch: normal; line-height: 1.25; font-size-adjust: 0.5; margin-top: 0px; margin-bottom: 0px; overflow: hidden; --color-scrollbar: var(--color-scrollbar-code); text-wrap-mode: wrap; --color-type: light-dark(#0053d4, #6db4ff); --color-keyword: light-dark(#388e22, #56a043); --color-class: light-dark(#3e6c20, #83ab69); --color-string: light-dark(#9a1111, #ffadad); --color-template: light-dark(#9a5334, #cd9076); --color-selector: light-dark(#9a5334, #cd9076); --color-function: light-dark(#a753b7, #c37bd1); --color-comment: light-dark(#616161, #9a9a9a); --color-section: light-dark(#9a1111, #ffadad); --color-variable: light-dark(#bd63c5, #b86bbf); --color-attribute: light-dark(#276b8f, #6ba6c5); --color-link: light-dark(#276b8f, #6ba6c5); --color-tag: light-dark(#000000, #ededed);&quot;&gt;&lt;div class=&quot;code-block&quot; data-entity-type=&quot;MessageEntityPre&quot; data-language=&quot;&quot; style=&quot;box-sizing: border-box; font-variant-numeric: normal; font-variant-east-asian: normal; font-variant-alternates: normal; font-variant-position: normal; font-variant-emoji: normal; font-kerning: auto; font-optical-sizing: auto; font-feature-settings: normal; font-variation-settings: normal; font-stretch: normal; line-height: 1.25; font-size-adjust: 0.5; margin-top: 0px; margin-bottom: 0px; overflow: hidden; --color-scrollbar: var(--color-scrollbar-code); text-wrap-mode: wrap; --color-type: light-dark(#0053d4, #6db4ff); --color-keyword: light-dark(#388e22, #56a043); --color-class: light-dark(#3e6c20, #83ab69); --color-string: light-dark(#9a1111, #ffadad); --color-template: light-dark(#9a5334, #cd9076); --color-selector: light-dark(#9a5334, #cd9076); --color-function: light-dark(#a753b7, #c37bd1); --color-comment: light-dark(#616161, #9a9a9a); --color-section: light-dark(#9a1111, #ffadad); --color-variable: light-dark(#bd63c5, #b86bbf); --color-attribute: light-dark(#276b8f, #6ba6c5); --color-link: light-dark(#276b8f, #6ba6c5); --color-tag: light-dark(#000000, #ededed);&quot;&gt;&lt;div class=&quot;code-block&quot; data-entity-type=&quot;MessageEntityPre&quot; data-language=&quot;&quot; style=&quot;box-sizing: border-box; font-variant-numeric: normal; font-variant-east-asian: normal; font-variant-alternates: normal; font-variant-position: normal; font-variant-emoji: normal; font-kerning: auto; font-optical-sizing: auto; font-feature-settings: normal; font-variation-settings: normal; font-stretch: normal; line-height: 1.25; font-size-adjust: 0.5; margin-top: 0px; margin-bottom: 0px; overflow: hidden; --color-scrollbar: var(--color-scrollbar-code); text-wrap-mode: wrap; --color-type: light-dark(#0053d4, #6db4ff); --color-keyword: light-dark(#388e22, #56a043); --color-class: light-dark(#3e6c20, #83ab69); --color-string: light-dark(#9a1111, #ffadad); --color-template: light-dark(#9a5334, #cd9076); --color-selector: light-dark(#9a5334, #cd9076); --color-function: light-dark(#a753b7, #c37bd1); --color-comment: light-dark(#616161, #9a9a9a); --color-section: light-dark(#9a1111, #ffadad); --color-variable: light-dark(#bd63c5, #b86bbf); --color-attribute: light-dark(#276b8f, #6ba6c5); --color-link: light-dark(#276b8f, #6ba6c5); --color-tag: light-dark(#000000, #ededed);&quot;&gt;&lt;div class=&quot;code-block&quot; data-entity-type=&quot;MessageEntityPre&quot; data-language=&quot;&quot; style=&quot;box-sizing: border-box; font-variant-numeric: normal; font-variant-east-asian: normal; font-variant-alternates: normal; font-variant-position: normal; font-variant-emoji: normal; font-kerning: auto; font-optical-sizing: auto; font-feature-settings: normal; font-variation-settings: normal; font-stretch: normal; line-height: 1.25; font-size-adjust: 0.5; margin-top: 0px; margin-bottom: 0px; overflow: hidden; --color-scrollbar: var(--color-scrollbar-code); text-wrap-mode: wrap; --color-type: light-dark(#0053d4, #6db4ff); --color-keyword: light-dark(#388e22, #56a043); --color-class: light-dark(#3e6c20, #83ab69); --color-string: light-dark(#9a1111, #ffadad); --color-template: light-dark(#9a5334, #cd9076); --color-selector: light-dark(#9a5334, #cd9076); --color-function: light-dark(#a753b7, #c37bd1); --color-comment: light-dark(#616161, #9a9a9a); --color-section: light-dark(#9a1111, #ffadad); --color-variable: light-dark(#bd63c5, #b86bbf); --color-attribute: light-dark(#276b8f, #6ba6c5); --color-link: light-dark(#276b8f, #6ba6c5); --color-tag: light-dark(#000000, #ededed);&quot;&gt;&lt;div class=&quot;code-block&quot; data-entity-type=&quot;MessageEntityPre&quot; data-language=&quot;&quot; style=&quot;box-sizing: border-box; font-variant-numeric: normal; font-variant-east-asian: normal; font-variant-alternates: normal; font-variant-position: normal; font-variant-emoji: normal; font-kerning: auto; font-optical-sizing: auto; font-feature-settings: normal; font-variation-settings: normal; font-stretch: normal; line-height: 1.25; font-size-adjust: 0.5; margin-top: 0px; margin-bottom: 0px; overflow: hidden; --color-scrollbar: var(--color-scrollbar-code); text-wrap-mode: wrap; --color-type: light-dark(#0053d4, #6db4ff); --color-keyword: light-dark(#388e22, #56a043); --color-class: light-dark(#3e6c20, #83ab69); --color-string: light-dark(#9a1111, #ffadad); --color-template: light-dark(#9a5334, #cd9076); --color-selector: light-dark(#9a5334, #cd9076); --color-function: light-dark(#a753b7, #c37bd1); --color-comment: light-dark(#616161, #9a9a9a); --color-section: light-dark(#9a1111, #ffadad); --color-variable: light-dark(#bd63c5, #b86bbf); --color-attribute: light-dark(#276b8f, #6ba6c5); --color-link: light-dark(#276b8f, #6ba6c5); --color-tag: light-dark(#000000, #ededed);&quot;&gt;&lt;span style=&quot;text-align: start; background-color: rgb(255, 255, 255);&quot;&gt;&lt;font&gt;Аналитика академических задолженностей&lt;/font&gt;&lt;/span&gt;&lt;/div&gt;&lt;/div&gt;&lt;/div&gt;&lt;/div&gt;&lt;/div&gt;&lt;/div&gt;" style="rounded=1;whiteSpace=wrap;html=1;align=center;fontSize=20;fontFamily=Times New Roman;" parent="1" vertex="1">
          <mxGeometry x="-476" y="390" width="284" height="150" as="geometry" />
        </mxCell>
        <mxCell id="5Bsa57qsfdlH7Fz6no1h-26" value="&lt;div class=&quot;code-block&quot; data-entity-type=&quot;MessageEntityPre&quot; data-language=&quot;&quot; style=&quot;box-sizing: border-box; font-variant-numeric: normal; font-variant-east-asian: normal; font-variant-alternates: normal; font-variant-position: normal; font-variant-emoji: normal; font-kerning: auto; font-optical-sizing: auto; font-feature-settings: normal; font-variation-settings: normal; font-stretch: normal; line-height: 1.25; font-size-adjust: 0.5; margin-top: 0px; margin-bottom: 0px; overflow: hidden; --color-scrollbar: var(--color-scrollbar-code); --color-type: light-dark(#0053d4, #6db4ff); --color-keyword: light-dark(#388e22, #56a043); --color-class: light-dark(#3e6c20, #83ab69); --color-string: light-dark(#9a1111, #ffadad); --color-template: light-dark(#9a5334, #cd9076); --color-selector: light-dark(#9a5334, #cd9076); --color-function: light-dark(#a753b7, #c37bd1); --color-comment: light-dark(#616161, #9a9a9a); --color-section: light-dark(#9a1111, #ffadad); --color-variable: light-dark(#bd63c5, #b86bbf); --color-attribute: light-dark(#276b8f, #6ba6c5); --color-link: light-dark(#276b8f, #6ba6c5); --color-tag: light-dark(#000000, #ededed);&quot;&gt;&lt;div class=&quot;code-block&quot; data-entity-type=&quot;MessageEntityPre&quot; data-language=&quot;&quot; style=&quot;box-sizing: border-box; font-variant-numeric: normal; font-variant-east-asian: normal; font-variant-alternates: normal; font-variant-position: normal; font-variant-emoji: normal; font-kerning: auto; font-optical-sizing: auto; font-feature-settings: normal; font-variation-settings: normal; font-stretch: normal; line-height: 1.25; font-size-adjust: 0.5; margin-top: 0px; margin-bottom: 0px; overflow: hidden; --color-scrollbar: var(--color-scrollbar-code); --color-type: light-dark(#0053d4, #6db4ff); --color-keyword: light-dark(#388e22, #56a043); --color-class: light-dark(#3e6c20, #83ab69); --color-string: light-dark(#9a1111, #ffadad); --color-template: light-dark(#9a5334, #cd9076); --color-selector: light-dark(#9a5334, #cd9076); --color-function: light-dark(#a753b7, #c37bd1); --color-comment: light-dark(#616161, #9a9a9a); --color-section: light-dark(#9a1111, #ffadad); --color-variable: light-dark(#bd63c5, #b86bbf); --color-attribute: light-dark(#276b8f, #6ba6c5); --color-link: light-dark(#276b8f, #6ba6c5); --color-tag: light-dark(#000000, #ededed);&quot;&gt;&lt;font&gt;&lt;span style=&quot;text-wrap-mode: wrap;&quot;&gt;Учебное и психологическое тестирование&lt;/span&gt;&lt;/font&gt;&lt;/div&gt;&lt;/div&gt;" style="rounded=1;whiteSpace=wrap;html=1;align=center;fontSize=20;fontFamily=Times New Roman;" parent="1" vertex="1">
          <mxGeometry x="380" y="400" width="284" height="150" as="geometry" />
        </mxCell>
        <mxCell id="5Bsa57qsfdlH7Fz6no1h-27" value="&lt;div class=&quot;code-block&quot; data-entity-type=&quot;MessageEntityPre&quot; data-language=&quot;&quot; style=&quot;box-sizing: border-box; font-variant-numeric: normal; font-variant-east-asian: normal; font-variant-alternates: normal; font-variant-position: normal; font-variant-emoji: normal; font-kerning: auto; font-optical-sizing: auto; font-feature-settings: normal; font-variation-settings: normal; font-stretch: normal; line-height: 1.25; font-size-adjust: 0.5; margin-top: 0px; margin-bottom: 0px; overflow: hidden; --color-scrollbar: var(--color-scrollbar-code); text-wrap-mode: wrap; --color-type: light-dark(#0053d4, #6db4ff); --color-keyword: light-dark(#388e22, #56a043); --color-class: light-dark(#3e6c20, #83ab69); --color-string: light-dark(#9a1111, #ffadad); --color-template: light-dark(#9a5334, #cd9076); --color-selector: light-dark(#9a5334, #cd9076); --color-function: light-dark(#a753b7, #c37bd1); --color-comment: light-dark(#616161, #9a9a9a); --color-section: light-dark(#9a1111, #ffadad); --color-variable: light-dark(#bd63c5, #b86bbf); --color-attribute: light-dark(#276b8f, #6ba6c5); --color-link: light-dark(#276b8f, #6ba6c5); --color-tag: light-dark(#000000, #ededed);&quot;&gt;&lt;div class=&quot;code-block&quot; data-entity-type=&quot;MessageEntityPre&quot; data-language=&quot;&quot; style=&quot;box-sizing: border-box; font-variant-numeric: normal; font-variant-east-asian: normal; font-variant-alternates: normal; font-variant-position: normal; font-variant-emoji: normal; font-kerning: auto; font-optical-sizing: auto; font-feature-settings: normal; font-variation-settings: normal; font-stretch: normal; line-height: 1.25; font-size-adjust: 0.5; margin-top: 0px; margin-bottom: 0px; overflow: hidden; --color-scrollbar: var(--color-scrollbar-code); text-wrap-mode: wrap; --color-type: light-dark(#0053d4, #6db4ff); --color-keyword: light-dark(#388e22, #56a043); --color-class: light-dark(#3e6c20, #83ab69); --color-string: light-dark(#9a1111, #ffadad); --color-template: light-dark(#9a5334, #cd9076); --color-selector: light-dark(#9a5334, #cd9076); --color-function: light-dark(#a753b7, #c37bd1); --color-comment: light-dark(#616161, #9a9a9a); --color-section: light-dark(#9a1111, #ffadad); --color-variable: light-dark(#bd63c5, #b86bbf); --color-attribute: light-dark(#276b8f, #6ba6c5); --color-link: light-dark(#276b8f, #6ba6c5); --color-tag: light-dark(#000000, #ededed);&quot;&gt;&lt;div class=&quot;code-block&quot; data-entity-type=&quot;MessageEntityPre&quot; data-language=&quot;&quot; style=&quot;box-sizing: border-box; font-variant-numeric: normal; font-variant-east-asian: normal; font-variant-alternates: normal; font-variant-position: normal; font-variant-emoji: normal; font-kerning: auto; font-optical-sizing: auto; font-feature-settings: normal; font-variation-settings: normal; font-stretch: normal; line-height: 1.25; font-size-adjust: 0.5; margin-top: 0px; margin-bottom: 0px; overflow: hidden; --color-scrollbar: var(--color-scrollbar-code); text-wrap-mode: wrap; --color-type: light-dark(#0053d4, #6db4ff); --color-keyword: light-dark(#388e22, #56a043); --color-class: light-dark(#3e6c20, #83ab69); --color-string: light-dark(#9a1111, #ffadad); --color-template: light-dark(#9a5334, #cd9076); --color-selector: light-dark(#9a5334, #cd9076); --color-function: light-dark(#a753b7, #c37bd1); --color-comment: light-dark(#616161, #9a9a9a); --color-section: light-dark(#9a1111, #ffadad); --color-variable: light-dark(#bd63c5, #b86bbf); --color-attribute: light-dark(#276b8f, #6ba6c5); --color-link: light-dark(#276b8f, #6ba6c5); --color-tag: light-dark(#000000, #ededed);&quot;&gt;&lt;span style=&quot;text-align: start; background-color: rgb(255, 255, 255);&quot;&gt;&lt;font&gt;Организационное обеспечение процессов&lt;/font&gt;&lt;/span&gt;&lt;/div&gt;&lt;/div&gt;&lt;/div&gt;" style="rounded=1;whiteSpace=wrap;html=1;align=center;fontSize=20;fontFamily=Times New Roman;" parent="1" vertex="1">
          <mxGeometry x="380" y="700" width="284" height="150" as="geometry" />
        </mxCell>
        <mxCell id="5Bsa57qsfdlH7Fz6no1h-35" value="&lt;div class=&quot;code-block&quot; data-entity-type=&quot;MessageEntityPre&quot; data-language=&quot;&quot; style=&quot;box-sizing: border-box; font-variant-numeric: normal; font-variant-east-asian: normal; font-variant-alternates: normal; font-variant-position: normal; font-variant-emoji: normal; font-kerning: auto; font-optical-sizing: auto; font-feature-settings: normal; font-variation-settings: normal; font-stretch: normal; line-height: 1.25; font-size-adjust: 0.5; margin-top: 0px; margin-bottom: 0px; overflow: hidden; --color-scrollbar: var(--color-scrollbar-code); text-wrap-mode: wrap; --color-type: light-dark(#0053d4, #6db4ff); --color-keyword: light-dark(#388e22, #56a043); --color-class: light-dark(#3e6c20, #83ab69); --color-string: light-dark(#9a1111, #ffadad); --color-template: light-dark(#9a5334, #cd9076); --color-selector: light-dark(#9a5334, #cd9076); --color-function: light-dark(#a753b7, #c37bd1); --color-comment: light-dark(#616161, #9a9a9a); --color-section: light-dark(#9a1111, #ffadad); --color-variable: light-dark(#bd63c5, #b86bbf); --color-attribute: light-dark(#276b8f, #6ba6c5); --color-link: light-dark(#276b8f, #6ba6c5); --color-tag: light-dark(#000000, #ededed);&quot;&gt;&lt;div class=&quot;code-block&quot; data-entity-type=&quot;MessageEntityPre&quot; data-language=&quot;&quot; style=&quot;box-sizing: border-box; font-variant-numeric: normal; font-variant-east-asian: normal; font-variant-alternates: normal; font-variant-position: normal; font-variant-emoji: normal; font-kerning: auto; font-optical-sizing: auto; font-feature-settings: normal; font-variation-settings: normal; font-stretch: normal; line-height: 1.25; font-size-adjust: 0.5; margin-top: 0px; margin-bottom: 0px; overflow: hidden; --color-scrollbar: var(--color-scrollbar-code); text-wrap-mode: wrap; --color-type: light-dark(#0053d4, #6db4ff); --color-keyword: light-dark(#388e22, #56a043); --color-class: light-dark(#3e6c20, #83ab69); --color-string: light-dark(#9a1111, #ffadad); --color-template: light-dark(#9a5334, #cd9076); --color-selector: light-dark(#9a5334, #cd9076); --color-function: light-dark(#a753b7, #c37bd1); --color-comment: light-dark(#616161, #9a9a9a); --color-section: light-dark(#9a1111, #ffadad); --color-variable: light-dark(#bd63c5, #b86bbf); --color-attribute: light-dark(#276b8f, #6ba6c5); --color-link: light-dark(#276b8f, #6ba6c5); --color-tag: light-dark(#000000, #ededed);&quot;&gt;&lt;span style=&quot;text-align: start; background-color: rgb(255, 255, 255);&quot;&gt;&lt;font&gt;Обработка академических задолженностей&lt;/font&gt;&lt;/span&gt;&lt;/div&gt;&lt;/div&gt;" style="rounded=1;whiteSpace=wrap;html=1;align=center;fontSize=20;fontFamily=Times New Roman;" parent="1" vertex="1">
          <mxGeometry x="1280" y="400" width="284" height="150" as="geometry" />
        </mxCell>
        <mxCell id="5Bsa57qsfdlH7Fz6no1h-37" value="&lt;div class=&quot;code-block&quot; data-entity-type=&quot;MessageEntityPre&quot; data-language=&quot;&quot; style=&quot;box-sizing: border-box; font-variant-numeric: normal; font-variant-east-asian: normal; font-variant-alternates: normal; font-variant-position: normal; font-variant-emoji: normal; font-kerning: auto; font-optical-sizing: auto; font-feature-settings: normal; font-variation-settings: normal; font-stretch: normal; line-height: 1.25; font-size-adjust: 0.5; margin-top: 0px; margin-bottom: 0px; overflow: hidden; --color-scrollbar: var(--color-scrollbar-code); --color-type: light-dark(#0053d4, #6db4ff); --color-keyword: light-dark(#388e22, #56a043); --color-class: light-dark(#3e6c20, #83ab69); --color-string: light-dark(#9a1111, #ffadad); --color-template: light-dark(#9a5334, #cd9076); --color-selector: light-dark(#9a5334, #cd9076); --color-function: light-dark(#a753b7, #c37bd1); --color-comment: light-dark(#616161, #9a9a9a); --color-section: light-dark(#9a1111, #ffadad); --color-variable: light-dark(#bd63c5, #b86bbf); --color-attribute: light-dark(#276b8f, #6ba6c5); --color-link: light-dark(#276b8f, #6ba6c5); --color-tag: light-dark(#000000, #ededed);&quot;&gt;&lt;div class=&quot;code-block&quot; data-entity-type=&quot;MessageEntityPre&quot; data-language=&quot;&quot; style=&quot;box-sizing: border-box; font-variant-numeric: normal; font-variant-east-asian: normal; font-variant-alternates: normal; font-variant-position: normal; font-variant-emoji: normal; font-kerning: auto; font-optical-sizing: auto; font-feature-settings: normal; font-variation-settings: normal; font-stretch: normal; line-height: 1.25; font-size-adjust: 0.5; margin-top: 0px; margin-bottom: 0px; overflow: hidden; --color-scrollbar: var(--color-scrollbar-code); --color-type: light-dark(#0053d4, #6db4ff); --color-keyword: light-dark(#388e22, #56a043); --color-class: light-dark(#3e6c20, #83ab69); --color-string: light-dark(#9a1111, #ffadad); --color-template: light-dark(#9a5334, #cd9076); --color-selector: light-dark(#9a5334, #cd9076); --color-function: light-dark(#a753b7, #c37bd1); --color-comment: light-dark(#616161, #9a9a9a); --color-section: light-dark(#9a1111, #ffadad); --color-variable: light-dark(#bd63c5, #b86bbf); --color-attribute: light-dark(#276b8f, #6ba6c5); --color-link: light-dark(#276b8f, #6ba6c5); --color-tag: light-dark(#000000, #ededed);&quot;&gt;&lt;div class=&quot;code-block&quot; data-entity-type=&quot;MessageEntityPre&quot; data-language=&quot;&quot; style=&quot;box-sizing: border-box; font-variant-numeric: normal; font-variant-east-asian: normal; font-variant-alternates: normal; font-variant-position: normal; font-variant-emoji: normal; font-kerning: auto; font-optical-sizing: auto; font-feature-settings: normal; font-variation-settings: normal; font-stretch: normal; line-height: 1.25; font-size-adjust: 0.5; margin-top: 0px; margin-bottom: 0px; overflow: hidden; --color-scrollbar: var(--color-scrollbar-code); --color-type: light-dark(#0053d4, #6db4ff); --color-keyword: light-dark(#388e22, #56a043); --color-class: light-dark(#3e6c20, #83ab69); --color-string: light-dark(#9a1111, #ffadad); --color-template: light-dark(#9a5334, #cd9076); --color-selector: light-dark(#9a5334, #cd9076); --color-function: light-dark(#a753b7, #c37bd1); --color-comment: light-dark(#616161, #9a9a9a); --color-section: light-dark(#9a1111, #ffadad); --color-variable: light-dark(#bd63c5, #b86bbf); --color-attribute: light-dark(#276b8f, #6ba6c5); --color-link: light-dark(#276b8f, #6ba6c5); --color-tag: light-dark(#000000, #ededed);&quot;&gt;&lt;font&gt;&lt;span style=&quot;text-wrap-mode: wrap;&quot;&gt;Контроль академической успеваемости&lt;/span&gt;&lt;/font&gt;&lt;/div&gt;&lt;/div&gt;&lt;/div&gt;" style="rounded=1;whiteSpace=wrap;html=1;align=center;fillColor=light-dark(#E08787,var(--ge-dark-color, #121212));fontSize=20;fontFamily=Times New Roman;" parent="1" vertex="1">
          <mxGeometry x="1280" y="690" width="284" height="150" as="geometry" />
        </mxCell>
        <mxCell id="5Bsa57qsfdlH7Fz6no1h-46" value="&lt;div class=&quot;code-block&quot; data-entity-type=&quot;MessageEntityPre&quot; data-language=&quot;&quot; style=&quot;box-sizing: border-box; font-variant-numeric: normal; font-variant-east-asian: normal; font-variant-alternates: normal; font-variant-position: normal; font-variant-emoji: normal; font-kerning: auto; font-optical-sizing: auto; font-feature-settings: normal; font-variation-settings: normal; font-stretch: normal; line-height: 1.25; font-size-adjust: 0.5; margin-top: 0px; margin-bottom: 0px; overflow: hidden; --color-scrollbar: var(--color-scrollbar-code); text-wrap-mode: wrap; --color-type: light-dark(#0053d4, #6db4ff); --color-keyword: light-dark(#388e22, #56a043); --color-class: light-dark(#3e6c20, #83ab69); --color-string: light-dark(#9a1111, #ffadad); --color-template: light-dark(#9a5334, #cd9076); --color-selector: light-dark(#9a5334, #cd9076); --color-function: light-dark(#a753b7, #c37bd1); --color-comment: light-dark(#616161, #9a9a9a); --color-section: light-dark(#9a1111, #ffadad); --color-variable: light-dark(#bd63c5, #b86bbf); --color-attribute: light-dark(#276b8f, #6ba6c5); --color-link: light-dark(#276b8f, #6ba6c5); --color-tag: light-dark(#000000, #ededed);&quot;&gt;&lt;div class=&quot;code-block&quot; data-entity-type=&quot;MessageEntityPre&quot; data-language=&quot;&quot; style=&quot;box-sizing: border-box; font-variant-numeric: normal; font-variant-east-asian: normal; font-variant-alternates: normal; font-variant-position: normal; font-variant-emoji: normal; font-kerning: auto; font-optical-sizing: auto; font-feature-settings: normal; font-variation-settings: normal; font-stretch: normal; line-height: 1.25; font-size-adjust: 0.5; margin-top: 0px; margin-bottom: 0px; overflow: hidden; --color-scrollbar: var(--color-scrollbar-code); text-wrap-mode: wrap; --color-type: light-dark(#0053d4, #6db4ff); --color-keyword: light-dark(#388e22, #56a043); --color-class: light-dark(#3e6c20, #83ab69); --color-string: light-dark(#9a1111, #ffadad); --color-template: light-dark(#9a5334, #cd9076); --color-selector: light-dark(#9a5334, #cd9076); --color-function: light-dark(#a753b7, #c37bd1); --color-comment: light-dark(#616161, #9a9a9a); --color-section: light-dark(#9a1111, #ffadad); --color-variable: light-dark(#bd63c5, #b86bbf); --color-attribute: light-dark(#276b8f, #6ba6c5); --color-link: light-dark(#276b8f, #6ba6c5); --color-tag: light-dark(#000000, #ededed);&quot;&gt;&lt;div class=&quot;code-block&quot; data-entity-type=&quot;MessageEntityPre&quot; data-language=&quot;&quot; style=&quot;box-sizing: border-box; font-variant-numeric: normal; font-variant-east-asian: normal; font-variant-alternates: normal; font-variant-position: normal; font-variant-emoji: normal; font-kerning: auto; font-optical-sizing: auto; font-feature-settings: normal; font-variation-settings: normal; font-stretch: normal; line-height: 1.25; font-size-adjust: 0.5; margin-top: 0px; margin-bottom: 0px; overflow: hidden; --color-scrollbar: var(--color-scrollbar-code); text-wrap-mode: wrap; --color-type: light-dark(#0053d4, #6db4ff); --color-keyword: light-dark(#388e22, #56a043); --color-class: light-dark(#3e6c20, #83ab69); --color-string: light-dark(#9a1111, #ffadad); --color-template: light-dark(#9a5334, #cd9076); --color-selector: light-dark(#9a5334, #cd9076); --color-function: light-dark(#a753b7, #c37bd1); --color-comment: light-dark(#616161, #9a9a9a); --color-section: light-dark(#9a1111, #ffadad); --color-variable: light-dark(#bd63c5, #b86bbf); --color-attribute: light-dark(#276b8f, #6ba6c5); --color-link: light-dark(#276b8f, #6ba6c5); --color-tag: light-dark(#000000, #ededed);&quot;&gt;&lt;div class=&quot;code-block&quot; data-entity-type=&quot;MessageEntityPre&quot; data-language=&quot;&quot; style=&quot;box-sizing: border-box; font-variant-numeric: normal; font-variant-east-asian: normal; font-variant-alternates: normal; font-variant-position: normal; font-variant-emoji: normal; font-kerning: auto; font-optical-sizing: auto; font-feature-settings: normal; font-variation-settings: normal; font-stretch: normal; line-height: 1.25; font-size-adjust: 0.5; margin-top: 0px; margin-bottom: 0px; overflow: hidden; --color-scrollbar: var(--color-scrollbar-code); text-wrap-mode: wrap; --color-type: light-dark(#0053d4, #6db4ff); --color-keyword: light-dark(#388e22, #56a043); --color-class: light-dark(#3e6c20, #83ab69); --color-string: light-dark(#9a1111, #ffadad); --color-template: light-dark(#9a5334, #cd9076); --color-selector: light-dark(#9a5334, #cd9076); --color-function: light-dark(#a753b7, #c37bd1); --color-comment: light-dark(#616161, #9a9a9a); --color-section: light-dark(#9a1111, #ffadad); --color-variable: light-dark(#bd63c5, #b86bbf); --color-attribute: light-dark(#276b8f, #6ba6c5); --color-link: light-dark(#276b8f, #6ba6c5); --color-tag: light-dark(#000000, #ededed);&quot;&gt;&lt;div class=&quot;code-block&quot; data-entity-type=&quot;MessageEntityPre&quot; data-language=&quot;&quot; style=&quot;box-sizing: border-box; font-variant-numeric: normal; font-variant-east-asian: normal; font-variant-alternates: normal; font-variant-position: normal; font-variant-emoji: normal; font-kerning: auto; font-optical-sizing: auto; font-feature-settings: normal; font-variation-settings: normal; font-stretch: normal; line-height: 1.25; font-size-adjust: 0.5; margin-top: 0px; margin-bottom: 0px; overflow: hidden; --color-scrollbar: var(--color-scrollbar-code); text-wrap-mode: wrap; --color-type: light-dark(#0053d4, #6db4ff); --color-keyword: light-dark(#388e22, #56a043); --color-class: light-dark(#3e6c20, #83ab69); --color-string: light-dark(#9a1111, #ffadad); --color-template: light-dark(#9a5334, #cd9076); --color-selector: light-dark(#9a5334, #cd9076); --color-function: light-dark(#a753b7, #c37bd1); --color-comment: light-dark(#616161, #9a9a9a); --color-section: light-dark(#9a1111, #ffadad); --color-variable: light-dark(#bd63c5, #b86bbf); --color-attribute: light-dark(#276b8f, #6ba6c5); --color-link: light-dark(#276b8f, #6ba6c5); --color-tag: light-dark(#000000, #ededed);&quot;&gt;&lt;span style=&quot;text-align: start; background-color: rgb(255, 255, 255);&quot;&gt;&lt;font&gt;Контроль соблюдения академических стандартов&lt;/font&gt;&lt;/span&gt;&lt;/div&gt;&lt;/div&gt;&lt;/div&gt;&lt;/div&gt;&lt;/div&gt;" style="rounded=1;whiteSpace=wrap;html=1;align=center;fontSize=20;fontFamily=Times New Roman;" parent="1" vertex="1">
          <mxGeometry x="-476" y="700" width="284" height="150" as="geometry" />
        </mxCell>
        <mxCell id="5Bsa57qsfdlH7Fz6no1h-66" style="edgeStyle=orthogonalEdgeStyle;rounded=0;orthogonalLoop=1;jettySize=auto;html=1;fontSize=20;entryX=0;entryY=0.6;entryDx=0;entryDy=0;entryPerimeter=0;fontFamily=Times New Roman;" parent="1" source="5Bsa57qsfdlH7Fz6no1h-14" target="5Bsa57qsfdlH7Fz6no1h-27" edge="1">
          <mxGeometry relative="1" as="geometry">
            <Array as="points">
              <mxPoint x="210" y="790" />
            </Array>
            <mxPoint x="378" y="790" as="targetPoint" />
          </mxGeometry>
        </mxCell>
        <mxCell id="5Bsa57qsfdlH7Fz6no1h-67" style="edgeStyle=orthogonalEdgeStyle;rounded=0;orthogonalLoop=1;jettySize=auto;html=1;entryX=-0.001;entryY=0.415;entryDx=0;entryDy=0;entryPerimeter=0;fontSize=20;fontFamily=Times New Roman;" parent="1" source="5Bsa57qsfdlH7Fz6no1h-14" target="5Bsa57qsfdlH7Fz6no1h-26" edge="1">
          <mxGeometry relative="1" as="geometry">
            <Array as="points">
              <mxPoint x="202" y="462" />
            </Array>
          </mxGeometry>
        </mxCell>
        <mxCell id="5Bsa57qsfdlH7Fz6no1h-69" style="edgeStyle=orthogonalEdgeStyle;rounded=0;orthogonalLoop=1;jettySize=auto;html=1;entryX=0.001;entryY=0.383;entryDx=0;entryDy=0;entryPerimeter=0;fontSize=20;fontFamily=Times New Roman;" parent="1" source="5Bsa57qsfdlH7Fz6no1h-13" target="5Bsa57qsfdlH7Fz6no1h-21" edge="1">
          <mxGeometry relative="1" as="geometry">
            <Array as="points">
              <mxPoint x="-640" y="448" />
            </Array>
          </mxGeometry>
        </mxCell>
      </root>
    </mxGraphModel>
  </diagram>
</mxfile>
